<?xml version="1.0" encoding="UTF-8"?>
<!DOCTYPE svg
PUBLIC "-//W3C//DTD SVG 1.1//EN"
       "http://www.w3.org/Graphics/SVG/1.1/DTD/svg11.dtd">
<svg width="1000px" height="1000px" xmlns="http://www.w3.org/2000/svg" version="1.1">
   <line x1="364" y1="171" x2="354" y2="171" style="fill:grey;stroke:black;stroke-width:2;"/>
   <line x1="164" y1="339" x2="154" y2="339" style="fill:grey;stroke:black;stroke-width:2;"/>
   <line x1="354" y1="171" x2="164" y2="339" style="fill:grey;stroke:grey;stroke-width:1;"/>
   <line x1="356.5" y1="171" x2="360.03553390593" y2="174.53553390593" style="fill:grey;stroke:black;stroke-width:2;"/>
   <line x1="356.5" y1="171" x2="360.03553390593" y2="167.46446609407" style="fill:grey;stroke:black;stroke-width:2;"/>
   <line x1="159" y1="339" x2="162.53553390593" y2="342.53553390593" style="fill:grey;stroke:black;stroke-width:2;"/>
   <line x1="159" y1="339" x2="162.53553390593" y2="335.46446609407" style="fill:grey;stroke:black;stroke-width:2;"/>
   <line x1="364" y1="211" x2="354" y2="211" style="fill:grey;stroke:black;stroke-width:2;"/>
   <line x1="188" y1="36" x2="178" y2="36" style="fill:grey;stroke:black;stroke-width:2;"/>
   <line x1="354" y1="211" x2="188" y2="36" style="fill:grey;stroke:grey;stroke-width:1;"/>
   <line x1="356.5" y1="211" x2="360.03553390593" y2="214.53553390593" style="fill:grey;stroke:black;stroke-width:2;"/>
   <line x1="356.5" y1="211" x2="360.03553390593" y2="207.46446609407" style="fill:grey;stroke:black;stroke-width:2;"/>
   <line x1="183" y1="36" x2="186.53553390593" y2="39.535533905933" style="fill:grey;stroke:black;stroke-width:2;"/>
   <line x1="183" y1="36" x2="186.53553390593" y2="32.464466094067" style="fill:grey;stroke:black;stroke-width:2;"/>
   <line x1="364" y1="131" x2="354" y2="131" style="fill:green;stroke:black;stroke-width:2;"/>
   <line x1="215" y1="237" x2="205" y2="237" style="fill:green;stroke:black;stroke-width:2;"/>
   <line x1="354" y1="131" x2="215" y2="237" style="fill:green;stroke:green;stroke-width:1;"/>
   <line x1="356.5" y1="131" x2="360.03553390593" y2="134.53553390593" style="fill:green;stroke:black;stroke-width:2;"/>
   <line x1="356.5" y1="131" x2="360.03553390593" y2="127.46446609407" style="fill:green;stroke:black;stroke-width:2;"/>
   <line x1="210" y1="237" x2="213.53553390593" y2="240.53553390593" style="fill:green;stroke:black;stroke-width:2;"/>
   <line x1="210" y1="237" x2="213.53553390593" y2="233.46446609407" style="fill:green;stroke:black;stroke-width:2;"/>
   <line x1="364" y1="151" x2="354" y2="151" style="fill:black;stroke:black;stroke-width:2;"/>
   <line x1="221" y1="134" x2="211" y2="134" style="fill:black;stroke:black;stroke-width:2;"/>
   <line x1="354" y1="151" x2="221" y2="134" style="fill:black;stroke:black;stroke-width:1;"/>
   <line x1="356.5" y1="151" x2="360.03553390593" y2="154.53553390593" style="fill:black;stroke:black;stroke-width:2;"/>
   <line x1="356.5" y1="151" x2="360.03553390593" y2="147.46446609407" style="fill:black;stroke:black;stroke-width:2;"/>
   <line x1="216" y1="134" x2="219.53553390593" y2="137.53553390593" style="fill:black;stroke:black;stroke-width:2;"/>
   <line x1="216" y1="134" x2="219.53553390593" y2="130.46446609407" style="fill:black;stroke:black;stroke-width:2;"/>
   <line x1="448" y1="111" x2="458" y2="111" style="fill:cyan;stroke:black;stroke-width:2;"/>
   <line x1="476" y1="293" x2="466" y2="293" style="fill:cyan;stroke:black;stroke-width:2;"/>
   <line x1="458" y1="111" x2="476" y2="293" style="fill:cyan;stroke:cyan;stroke-width:1;"/>
   <line x1="455.5" y1="111" x2="451.96446609407" y2="114.53553390593" style="fill:cyan;stroke:black;stroke-width:2;"/>
   <line x1="455.5" y1="111" x2="451.96446609407" y2="107.46446609407" style="fill:cyan;stroke:black;stroke-width:2;"/>
   <line x1="471" y1="293" x2="474.53553390593" y2="296.53553390593" style="fill:cyan;stroke:black;stroke-width:2;"/>
   <line x1="471" y1="293" x2="474.53553390593" y2="289.46446609407" style="fill:cyan;stroke:black;stroke-width:2;"/>
   <line x1="364" y1="191" x2="354" y2="191" style="fill:green;stroke:black;stroke-width:2;"/>
   <line x1="190" y1="460" x2="180" y2="460" style="fill:green;stroke:black;stroke-width:2;"/>
   <line x1="354" y1="191" x2="190" y2="460" style="fill:green;stroke:green;stroke-width:1;"/>
   <line x1="356.5" y1="191" x2="360.03553390593" y2="194.53553390593" style="fill:green;stroke:black;stroke-width:2;"/>
   <line x1="356.5" y1="191" x2="360.03553390593" y2="187.46446609407" style="fill:green;stroke:black;stroke-width:2;"/>
   <line x1="185" y1="460" x2="188.53553390593" y2="463.53553390593" style="fill:green;stroke:black;stroke-width:2;"/>
   <line x1="185" y1="460" x2="188.53553390593" y2="456.46446609407" style="fill:green;stroke:black;stroke-width:2;"/>
   <line x1="466" y1="313" x2="476" y2="313" style="fill:grey;stroke:black;stroke-width:2;"/>
   <line x1="578" y1="411" x2="588" y2="411" style="fill:grey;stroke:black;stroke-width:2;"/>
   <line x1="476" y1="313" x2="578" y2="411" style="fill:grey;stroke:grey;stroke-width:1;"/>
   <line x1="473.5" y1="313" x2="469.96446609407" y2="316.53553390593" style="fill:grey;stroke:black;stroke-width:2;"/>
   <line x1="473.5" y1="313" x2="469.96446609407" y2="309.46446609407" style="fill:grey;stroke:black;stroke-width:2;"/>
   <line x1="583" y1="411" x2="579.46446609407" y2="414.53553390593" style="fill:grey;stroke:black;stroke-width:2;"/>
   <line x1="583" y1="411" x2="579.46446609407" y2="407.46446609407" style="fill:grey;stroke:black;stroke-width:2;"/>
   <line x1="589" y1="320" x2="579" y2="320" style="fill:    orange;stroke:black;stroke-width:2;"/>
   <line x1="476" y1="293" x2="466" y2="293" style="fill:    orange;stroke:black;stroke-width:2;"/>
   <line x1="579" y1="320" x2="476" y2="293" style="fill:    orange;stroke:    orange;stroke-width:1;"/>
   <line x1="581.5" y1="320" x2="585.03553390593" y2="323.53553390593" style="fill:    orange;stroke:black;stroke-width:2;"/>
   <line x1="581.5" y1="320" x2="585.03553390593" y2="316.46446609407" style="fill:    orange;stroke:black;stroke-width:2;"/>
   <line x1="471" y1="293" x2="474.53553390593" y2="296.53553390593" style="fill:    orange;stroke:black;stroke-width:2;"/>
   <line x1="471" y1="293" x2="474.53553390593" y2="289.46446609407" style="fill:    orange;stroke:black;stroke-width:2;"/>
   <line x1="743" y1="340" x2="753" y2="340" style="fill:cyan;stroke:black;stroke-width:2;"/>
   <line x1="872" y1="347" x2="882" y2="347" style="fill:cyan;stroke:black;stroke-width:2;"/>
   <line x1="753" y1="340" x2="872" y2="347" style="fill:cyan;stroke:cyan;stroke-width:1;"/>
   <line x1="750.5" y1="340" x2="746.96446609407" y2="343.53553390593" style="fill:cyan;stroke:black;stroke-width:2;"/>
   <line x1="750.5" y1="340" x2="746.96446609407" y2="336.46446609407" style="fill:cyan;stroke:black;stroke-width:2;"/>
   <line x1="877" y1="347" x2="873.46446609407" y2="350.53553390593" style="fill:cyan;stroke:black;stroke-width:2;"/>
   <line x1="877" y1="347" x2="873.46446609407" y2="343.46446609407" style="fill:cyan;stroke:black;stroke-width:2;"/>
   <rect width="84" height="20" x="364" y="61" style="fill:red;stroke:black;"/>
   <text width="84" height="20" x="369" y="75" style="fill:none;stroke:black;" font-family="Arial" font-size="16px"> address</text>
   <rect width="84" height="20" x="364" y="81" style="fill:#0c0;stroke:black;"/>
   <text width="84" height="20" x="369" y="95" style="fill:none;stroke:black;" font-family="Arial" font-size="16px">address_id</text>
   <rect width="84" height="20" x="364" y="101" style="fill:none;stroke:black;"/>
   <text width="84" height="20" x="369" y="115" style="fill:none;stroke:black;" font-family="Arial" font-size="16px">place_id</text>
   <rect width="84" height="20" x="364" y="121" style="fill:none;stroke:black;"/>
   <text width="84" height="20" x="369" y="135" style="fill:none;stroke:black;" font-family="Arial" font-size="16px">district_id</text>
   <rect width="84" height="20" x="364" y="141" style="fill:none;stroke:black;"/>
   <text width="84" height="20" x="369" y="155" style="fill:none;stroke:black;" font-family="Arial" font-size="16px">division_id</text>
   <rect width="84" height="20" x="364" y="161" style="fill:none;stroke:black;"/>
   <text width="84" height="20" x="369" y="175" style="fill:none;stroke:black;" font-family="Arial" font-size="16px">city_id</text>
   <rect width="84" height="20" x="364" y="181" style="fill:none;stroke:black;"/>
   <text width="84" height="20" x="369" y="195" style="fill:none;stroke:black;" font-family="Arial" font-size="16px">thana_id</text>
   <rect width="84" height="20" x="364" y="201" style="fill:none;stroke:black;"/>
   <text width="84" height="20" x="369" y="215" style="fill:none;stroke:black;" font-family="Arial" font-size="16px">country_id</text>
   <rect width="79" height="20" x="75" y="309" style="fill:red;stroke:black;"/>
   <text width="79" height="20" x="80" y="323" style="fill:none;stroke:black;" font-family="Arial" font-size="16px"> city</text>
   <rect width="79" height="20" x="75" y="329" style="fill:#0c0;stroke:black;"/>
   <text width="79" height="20" x="80" y="343" style="fill:none;stroke:black;" font-family="Arial" font-size="16px">city_id</text>
   <rect width="79" height="20" x="75" y="349" style="fill:none;stroke:black;"/>
   <text width="79" height="20" x="80" y="363" style="fill:none;stroke:black;" font-family="Arial" font-size="16px">city_name</text>
   <rect width="79" height="20" x="75" y="369" style="fill:none;stroke:black;"/>
   <text width="79" height="20" x="80" y="383" style="fill:none;stroke:black;" font-family="Arial" font-size="16px">city_des</text>
   <rect width="107" height="20" x="71" y="6" style="fill:red;stroke:black;"/>
   <text width="107" height="20" x="76" y="20" style="fill:none;stroke:black;" font-family="Arial" font-size="16px"> country</text>
   <rect width="107" height="20" x="71" y="26" style="fill:#0c0;stroke:black;"/>
   <text width="107" height="20" x="76" y="40" style="fill:none;stroke:black;" font-family="Arial" font-size="16px">country_id</text>
   <rect width="107" height="20" x="71" y="46" style="fill:none;stroke:black;"/>
   <text width="107" height="20" x="76" y="60" style="fill:none;stroke:black;" font-family="Arial" font-size="16px">country_code</text>
   <rect width="107" height="20" x="71" y="66" style="fill:none;stroke:black;"/>
   <text width="107" height="20" x="76" y="80" style="fill:none;stroke:black;" font-family="Arial" font-size="16px">country_name</text>
   <rect width="139" height="20" x="66" y="207" style="fill:red;stroke:black;"/>
   <text width="139" height="20" x="71" y="221" style="fill:none;stroke:black;" font-family="Arial" font-size="16px"> district</text>
   <rect width="139" height="20" x="66" y="227" style="fill:#0c0;stroke:black;"/>
   <text width="139" height="20" x="71" y="241" style="fill:none;stroke:black;" font-family="Arial" font-size="16px">district_id</text>
   <rect width="139" height="20" x="66" y="247" style="fill:none;stroke:black;"/>
   <text width="139" height="20" x="71" y="261" style="fill:none;stroke:black;" font-family="Arial" font-size="16px">district_name</text>
   <rect width="139" height="20" x="66" y="267" style="fill:none;stroke:black;"/>
   <text width="139" height="20" x="71" y="281" style="fill:none;stroke:black;" font-family="Arial" font-size="16px">district_description</text>
   <rect width="146" height="20" x="65" y="104" style="fill:red;stroke:black;"/>
   <text width="146" height="20" x="70" y="118" style="fill:none;stroke:black;" font-family="Arial" font-size="16px"> division</text>
   <rect width="146" height="20" x="65" y="124" style="fill:#0c0;stroke:black;"/>
   <text width="146" height="20" x="70" y="138" style="fill:none;stroke:black;" font-family="Arial" font-size="16px">division_id</text>
   <rect width="146" height="20" x="65" y="144" style="fill:none;stroke:black;"/>
   <text width="146" height="20" x="70" y="158" style="fill:none;stroke:black;" font-family="Arial" font-size="16px">division_name</text>
   <rect width="146" height="20" x="65" y="164" style="fill:none;stroke:black;"/>
   <text width="146" height="20" x="70" y="178" style="fill:none;stroke:black;" font-family="Arial" font-size="16px">division_description</text>
   <rect width="100" height="20" x="586" y="541" style="fill:red;stroke:black;"/>
   <text width="100" height="20" x="591" y="555" style="fill:none;stroke:black;" font-family="Arial" font-size="16px"> guides</text>
   <rect width="100" height="20" x="586" y="561" style="fill:#0c0;stroke:black;"/>
   <text width="100" height="20" x="591" y="575" style="fill:none;stroke:black;" font-family="Arial" font-size="16px">guidesID</text>
   <rect width="100" height="20" x="586" y="581" style="fill:none;stroke:black;"/>
   <text width="100" height="20" x="591" y="595" style="fill:none;stroke:black;" font-family="Arial" font-size="16px">guidesName</text>
   <rect width="141" height="20" x="816" y="547" style="fill:red;stroke:black;"/>
   <text width="141" height="20" x="821" y="561" style="fill:none;stroke:black;" font-family="Arial" font-size="16px"> organization</text>
   <rect width="141" height="20" x="816" y="567" style="fill:#0c0;stroke:black;"/>
   <text width="141" height="20" x="821" y="581" style="fill:none;stroke:black;" font-family="Arial" font-size="16px">organizationID</text>
   <rect width="141" height="20" x="816" y="587" style="fill:none;stroke:black;"/>
   <text width="141" height="20" x="821" y="601" style="fill:none;stroke:black;" font-family="Arial" font-size="16px">organizationName</text>
   <rect width="131" height="20" x="335" y="263" style="fill:red;stroke:black;"/>
   <text width="131" height="20" x="340" y="277" style="fill:none;stroke:black;" font-family="Arial" font-size="16px"> places</text>
   <rect width="131" height="20" x="335" y="283" style="fill:#0c0;stroke:black;"/>
   <text width="131" height="20" x="340" y="297" style="fill:none;stroke:black;" font-family="Arial" font-size="16px">place_id</text>
   <rect width="131" height="20" x="335" y="303" style="fill:none;stroke:black;"/>
   <text width="131" height="20" x="340" y="317" style="fill:none;stroke:black;" font-family="Arial" font-size="16px">place_type</text>
   <rect width="131" height="20" x="335" y="323" style="fill:none;stroke:black;"/>
   <text width="131" height="20" x="340" y="337" style="fill:none;stroke:black;" font-family="Arial" font-size="16px">place_name</text>
   <rect width="131" height="20" x="335" y="343" style="fill:none;stroke:black;"/>
   <text width="131" height="20" x="340" y="357" style="fill:none;stroke:black;" font-family="Arial" font-size="16px">place_description</text>
   <rect width="131" height="20" x="335" y="363" style="fill:none;stroke:black;"/>
   <text width="131" height="20" x="340" y="377" style="fill:none;stroke:black;" font-family="Arial" font-size="16px">place_address</text>
   <rect width="131" height="20" x="335" y="383" style="fill:none;stroke:black;"/>
   <text width="131" height="20" x="340" y="397" style="fill:none;stroke:black;" font-family="Arial" font-size="16px">place_longitude</text>
   <rect width="131" height="20" x="335" y="403" style="fill:none;stroke:black;"/>
   <text width="131" height="20" x="340" y="417" style="fill:none;stroke:black;" font-family="Arial" font-size="16px">place_latitude</text>
   <rect width="154" height="20" x="589" y="270" style="fill:red;stroke:black;"/>
   <text width="154" height="20" x="594" y="284" style="fill:none;stroke:black;" font-family="Arial" font-size="16px"> placetag</text>
   <rect width="154" height="20" x="589" y="290" style="fill:#0c0;stroke:black;"/>
   <text width="154" height="20" x="594" y="304" style="fill:none;stroke:black;" font-family="Arial" font-size="16px">placetag_primarykey</text>
   <rect width="154" height="20" x="589" y="310" style="fill:none;stroke:black;"/>
   <text width="154" height="20" x="594" y="324" style="fill:none;stroke:black;" font-family="Arial" font-size="16px">place_id</text>
   <rect width="154" height="20" x="589" y="330" style="fill:none;stroke:black;"/>
   <text width="154" height="20" x="594" y="344" style="fill:none;stroke:black;" font-family="Arial" font-size="16px">tag_id</text>
   <rect width="90" height="20" x="588" y="381" style="fill:red;stroke:black;"/>
   <text width="90" height="20" x="593" y="395" style="fill:none;stroke:black;" font-family="Arial" font-size="16px"> placetype</text>
   <rect width="90" height="20" x="588" y="401" style="fill:#0c0;stroke:black;"/>
   <text width="90" height="20" x="593" y="415" style="fill:none;stroke:black;" font-family="Arial" font-size="16px">name</text>
   <rect width="90" height="20" x="588" y="421" style="fill:none;stroke:black;"/>
   <text width="90" height="20" x="593" y="435" style="fill:none;stroke:black;" font-family="Arial" font-size="16px">Description</text>
   <rect width="115" height="20" x="882" y="317" style="fill:red;stroke:black;"/>
   <text width="115" height="20" x="887" y="331" style="fill:none;stroke:black;" font-family="Arial" font-size="16px"> tags</text>
   <rect width="115" height="20" x="882" y="337" style="fill:#0c0;stroke:black;"/>
   <text width="115" height="20" x="887" y="351" style="fill:none;stroke:black;" font-family="Arial" font-size="16px">tag_id</text>
   <rect width="115" height="20" x="882" y="357" style="fill:none;stroke:black;"/>
   <text width="115" height="20" x="887" y="371" style="fill:none;stroke:black;" font-family="Arial" font-size="16px">tag_name</text>
   <rect width="115" height="20" x="882" y="377" style="fill:none;stroke:black;"/>
   <text width="115" height="20" x="887" y="391" style="fill:none;stroke:black;" font-family="Arial" font-size="16px">tag_description</text>
   <rect width="95" height="20" x="85" y="430" style="fill:red;stroke:black;"/>
   <text width="95" height="20" x="90" y="444" style="fill:none;stroke:black;" font-family="Arial" font-size="16px"> thana</text>
   <rect width="95" height="20" x="85" y="450" style="fill:#0c0;stroke:black;"/>
   <text width="95" height="20" x="90" y="464" style="fill:none;stroke:black;" font-family="Arial" font-size="16px">thana_id</text>
   <rect width="95" height="20" x="85" y="470" style="fill:none;stroke:black;"/>
   <text width="95" height="20" x="90" y="484" style="fill:none;stroke:black;" font-family="Arial" font-size="16px">thana_name</text>
   <rect width="95" height="20" x="85" y="490" style="fill:none;stroke:black;"/>
   <text width="95" height="20" x="90" y="504" style="fill:none;stroke:black;" font-family="Arial" font-size="16px">thana_code</text>
   <rect width="141" height="20" x="334" y="530" style="fill:red;stroke:black;"/>
   <text width="141" height="20" x="339" y="544" style="fill:none;stroke:black;" font-family="Arial" font-size="16px"> travellers</text>
   <rect width="141" height="20" x="334" y="550" style="fill:#0c0;stroke:black;"/>
   <text width="141" height="20" x="339" y="564" style="fill:none;stroke:black;" font-family="Arial" font-size="16px">traveller_id</text>
   <rect width="141" height="20" x="334" y="570" style="fill:none;stroke:black;"/>
   <text width="141" height="20" x="339" y="584" style="fill:none;stroke:black;" font-family="Arial" font-size="16px">traveller_name</text>
   <rect width="141" height="20" x="334" y="590" style="fill:none;stroke:black;"/>
   <text width="141" height="20" x="339" y="604" style="fill:none;stroke:black;" font-family="Arial" font-size="16px">traveller_birthday</text>
   <rect width="141" height="20" x="334" y="610" style="fill:none;stroke:black;"/>
   <text width="141" height="20" x="339" y="624" style="fill:none;stroke:black;" font-family="Arial" font-size="16px">traveller_email</text>
   <rect width="141" height="20" x="334" y="630" style="fill:none;stroke:black;"/>
   <text width="141" height="20" x="339" y="644" style="fill:none;stroke:black;" font-family="Arial" font-size="16px">traveller_password</text>
   <rect width="141" height="20" x="334" y="650" style="fill:none;stroke:black;"/>
   <text width="141" height="20" x="339" y="664" style="fill:none;stroke:black;" font-family="Arial" font-size="16px">traveller_active</text>
   <rect width="141" height="20" x="334" y="670" style="fill:none;stroke:black;"/>
   <text width="141" height="20" x="339" y="684" style="fill:none;stroke:black;" font-family="Arial" font-size="16px">travellerCountry_id</text>
</svg>
